<?xml version="1.0" encoding="UTF-8" standalone="no"?>
<svg
   width="566.92914pt"
   height="283.46457pt"
   viewBox="0 0 566.92914 283.46457"
   version="1.1"
   id="svg76"
   sodipodi:docname="DynError.svg"
   inkscape:version="1.3 (0e150ed6c4, 2023-07-21)"
   xmlns:inkscape="http://www.inkscape.org/namespaces/inkscape"
   xmlns:sodipodi="http://sodipodi.sourceforge.net/DTD/sodipodi-0.dtd"
   xmlns:xlink="http://www.w3.org/1999/xlink"
   xmlns="http://www.w3.org/2000/svg"
   xmlns:svg="http://www.w3.org/2000/svg"
   xmlns:rdf="http://www.w3.org/1999/02/22-rdf-syntax-ns#"
   xmlns:cc="http://creativecommons.org/ns#"
   xmlns:dc="http://purl.org/dc/elements/1.1/">
  <sodipodi:namedview
     id="namedview76"
     pagecolor="#ffffff"
     bordercolor="#000000"
     borderopacity="0.25"
     inkscape:showpageshadow="2"
     inkscape:pageopacity="0.0"
     inkscape:pagecheckerboard="0"
     inkscape:deskcolor="#d1d1d1"
     inkscape:document-units="pt"
     inkscape:zoom="3.8630952"
     inkscape:cx="191.55624"
     inkscape:cy="87.624038"
     inkscape:window-width="3840"
     inkscape:window-height="2066"
     inkscape:window-x="3829"
     inkscape:window-y="-11"
     inkscape:window-maximized="1"
     inkscape:current-layer="svg76"
     showguides="true">
    <sodipodi:guide
       position="284.14687,262.72092"
       orientation="1,0"
       id="guide83"
       inkscape:locked="false" />
    <sodipodi:guide
       position="281.36615,260.72092"
       orientation="0,-1"
       id="guide84"
       inkscape:locked="false" />
    <sodipodi:guide
       position="179.5,291.07717"
       orientation="1,0"
       id="guide85"
       inkscape:locked="false" />
    <sodipodi:guide
       position="181.5,293.07717"
       orientation="0,-1"
       id="guide86"
       inkscape:locked="false" />
    <sodipodi:guide
       position="95.482816,223.12048"
       orientation="1,0"
       id="guide87"
       inkscape:locked="false" />
    <sodipodi:guide
       position="97.482816,225.17717"
       orientation="0,-1"
       id="guide88"
       inkscape:locked="false" />
  </sodipodi:namedview>
  <metadata
     id="metadata1">
    <rdf:RDF>
      <cc:Work>
        <dc:type
           rdf:resource="http://purl.org/dc/dcmitype/StillImage" />
        <dc:date>2024-04-15T18:47:16.011010</dc:date>
        <dc:format>image/svg+xml</dc:format>
        <dc:creator>
          <cc:Agent>
            <dc:title>Matplotlib v3.5.3, https://matplotlib.org/</dc:title>
          </cc:Agent>
        </dc:creator>
      </cc:Work>
    </rdf:RDF>
  </metadata>
  <defs
     id="defs1">
    <style
       type="text/css"
       id="style1">*{stroke-linejoin: round; stroke-linecap: butt}</style>
    <path
       id="DejaVuSans-47-1"
       d="M 3809,666 V 1919 H 2778 v 519 H 4434 V 434 Q 4069,175 3628,42 3188,-91 2688,-91 1594,-91 976,548 359,1188 359,2328 q 0,1144 617,1783 618,639 1712,639 456,0 867,-113 411,-112 758,-331 v -672 q -350,297 -744,447 -394,150 -828,150 -857,0 -1287,-478 -429,-478 -429,-1425 0,-944 429,-1422 430,-478 1287,-478 334,0 596,58 263,58 472,180 z"
       transform="scale(0.015625)" />
    <path
       id="DejaVuSans-50-2"
       d="M 1259,4147 V 2394 h 794 q 441,0 681,228 241,228 241,650 0,419 -241,647 -240,228 -681,228 z m -631,519 h 1425 q 785,0 1186,-355 402,-355 402,-1039 0,-691 -402,-1044 -401,-353 -1186,-353 H 1259 V 0 H 628 Z"
       transform="scale(0.015625)" />
    <path
       id="DejaVuSans-4d-3"
       d="m 628,4666 h 941 L 2759,1491 3956,4666 h 941 V 0 H 4281 V 4097 L 3078,897 H 2444 L 1241,4097 V 0 H 628 Z"
       transform="scale(0.015625)" />
    <path
       id="DejaVuSans-61-8"
       d="m 2194,1759 q -697,0 -966,-159 -269,-159 -269,-544 0,-306 202,-486 202,-179 548,-179 479,0 768,339 289,339 289,901 v 128 z m 1147,238 V 0 H 2766 V 531 Q 2569,213 2275,61 1981,-91 1556,-91 q -537,0 -855,302 -317,302 -317,808 0,590 395,890 396,300 1180,300 h 807 v 57 q 0,397 -261,614 -261,217 -733,217 -300,0 -585,-72 -284,-72 -546,-216 v 532 q 315,122 612,182 297,61 578,61 760,0 1135,-394 375,-393 375,-1193 z"
       transform="scale(0.015625)" />
    <path
       id="DejaVuSans-75-3"
       d="m 544,1381 v 2119 h 575 V 1403 q 0,-497 193,-746 194,-248 582,-248 465,0 735,297 271,297 271,810 v 1984 h 575 V 0 H 2900 V 538 Q 2691,219 2414,64 2138,-91 1772,-91 1169,-91 856,284 544,659 544,1381 Z m 1447,2203 z"
       transform="scale(0.015625)" />
    <path
       id="DejaVuSans-72-5"
       d="m 2631,2963 q -97,56 -211,82 -114,27 -251,27 -488,0 -749,-317 -261,-317 -261,-911 V 0 H 581 v 3500 h 578 v -544 q 182,319 472,473 291,155 707,155 59,0 131,-8 72,-7 159,-23 z"
       transform="scale(0.015625)" />
    <path
       id="DejaVuSans-6d-9"
       d="m 3328,2828 q 216,388 516,572 300,184 706,184 547,0 844,-383 297,-382 297,-1088 V 0 h -578 v 2094 q 0,503 -179,746 -178,244 -543,244 -447,0 -707,-297 -259,-296 -259,-809 V 0 h -578 v 2094 q 0,506 -178,748 -178,242 -550,242 -441,0 -701,-298 -259,-298 -259,-808 V 0 H 581 v 3500 h 578 v -544 q 197,322 472,475 275,153 653,153 382,0 649,-194 267,-193 395,-562 z"
       transform="scale(0.015625)" />
    <path
       id="DejaVuSans-74-7"
       d="M 1172,4494 V 3500 H 2356 V 3053 H 1172 V 1153 q 0,-428 117,-550 117,-122 477,-122 h 590 V 0 H 1766 Q 1100,0 847,248 594,497 594,1153 V 3053 H 172 v 447 h 422 v 994 z"
       transform="scale(0.015625)" />
  </defs>
  <rect
     style="fill:#ffffff;stroke:none;stroke-width:1.20899;stroke-linejoin:round;stroke-dashoffset:16"
     id="rect1"
     width="565.72015"
     height="282.25558"
     x="0.60449499"
     y="0.60449499" />
  <g
     id="patch_2"
     transform="translate(27.482816,-14.159993)">
    <path
       d="M 63,256.32 H 453.6 V 34.56 H 63 Z"
       style="fill:#ffffff"
       id="path2" />
  </g>
  <g
     id="matplotlib.axis_1"
     transform="translate(27.482816,-14.159993)">
    <g
       id="xtick_1">
      <g
         id="line2d_1">
        <path
           d="M 79.648343,256.32 V 34.56"
           clip-path="url(#p3f2b13db65)"
           style="fill:none;stroke:#b0b0b0;stroke-width:0.8;stroke-linecap:square"
           id="path3" />
      </g>
      <g
         id="line2d_2">
        <defs
           id="defs3">
          <path
             id="m36631b471f"
             d="M 0,0 V 3.5"
             style="stroke:#000000;stroke-width:0.8" />
        </defs>
        <g
           id="g3">
          <use
             xlink:href="#m36631b471f"
             x="79.648346"
             y="256.32001"
             style="stroke:#000000;stroke-width:0.8"
             id="use3" />
        </g>
      </g>
      <g
         id="text_1">
        <!-- 0 -->
        <g
           transform="matrix(0.1,0,0,-0.1,76.467093,270.91844)"
           id="g4">
          <defs
             id="defs4">
            <path
               id="DejaVuSans-30"
               d="m 2034,4250 q -487,0 -733,-480 -245,-479 -245,-1442 0,-959 245,-1439 246,-480 733,-480 491,0 736,480 246,480 246,1439 0,963 -246,1442 -245,480 -736,480 z m 0,500 q 785,0 1199,-621 414,-620 414,-1801 0,-1178 -414,-1799 -414,-620 -1199,-620 -784,0 -1198,620 -414,621 -414,1799 0,1181 414,1801 414,621 1198,621 z"
               transform="scale(0.015625)" />
          </defs>
          <use
             xlink:href="#DejaVuSans-30"
             id="use4" />
        </g>
      </g>
    </g>
    <g
       id="xtick_2">
      <g
         id="line2d_3">
        <path
           d="M 134.95845,256.32 V 34.56"
           clip-path="url(#p3f2b13db65)"
           style="fill:none;stroke:#b0b0b0;stroke-width:0.8;stroke-linecap:square"
           id="path4" />
      </g>
      <g
         id="line2d_4">
        <g
           id="g5">
          <use
             xlink:href="#m36631b471f"
             x="134.95845"
             y="256.32001"
             style="stroke:#000000;stroke-width:0.8"
             id="use5" />
        </g>
      </g>
      <g
         id="text_2">
        <!-- 1 -->
        <g
           transform="matrix(0.1,0,0,-0.1,131.7772,270.91844)"
           id="g6">
          <defs
             id="defs5">
            <path
               id="DejaVuSans-31"
               d="M 794,531 H 1825 V 4091 L 703,3866 v 575 l 1116,225 h 631 V 531 H 3481 V 0 H 794 Z"
               transform="scale(0.015625)" />
          </defs>
          <use
             xlink:href="#DejaVuSans-31"
             id="use6" />
        </g>
      </g>
    </g>
    <g
       id="xtick_3">
      <g
         id="line2d_5">
        <path
           d="M 190.26856,256.32 V 34.56"
           clip-path="url(#p3f2b13db65)"
           style="fill:none;stroke:#b0b0b0;stroke-width:0.8;stroke-linecap:square"
           id="path6" />
      </g>
      <g
         id="line2d_6">
        <g
           id="g7">
          <use
             xlink:href="#m36631b471f"
             x="190.26857"
             y="256.32001"
             style="stroke:#000000;stroke-width:0.8"
             id="use7" />
        </g>
      </g>
      <g
         id="text_3">
        <!-- 2 -->
        <g
           transform="matrix(0.1,0,0,-0.1,187.08731,270.91844)"
           id="g8">
          <defs
             id="defs7">
            <path
               id="DejaVuSans-32"
               d="M 1228,531 H 3431 V 0 H 469 v 531 q 359,372 979,998 621,627 780,809 303,340 423,576 121,236 121,464 0,372 -261,606 -261,235 -680,235 -297,0 -627,-103 -329,-103 -704,-313 v 638 q 381,153 712,231 332,78 607,78 725,0 1156,-363 431,-362 431,-968 0,-288 -108,-546 -107,-257 -392,-607 -78,-91 -497,-524 Q 1991,1309 1228,531 Z"
               transform="scale(0.015625)" />
          </defs>
          <use
             xlink:href="#DejaVuSans-32"
             id="use8" />
        </g>
      </g>
    </g>
    <g
       id="xtick_4">
      <g
         id="line2d_7">
        <path
           d="M 245.57867,256.32 V 34.56"
           clip-path="url(#p3f2b13db65)"
           style="fill:none;stroke:#b0b0b0;stroke-width:0.8;stroke-linecap:square"
           id="path8" />
      </g>
      <g
         id="line2d_8">
        <g
           id="g9">
          <use
             xlink:href="#m36631b471f"
             x="245.57867"
             y="256.32001"
             style="stroke:#000000;stroke-width:0.8"
             id="use9" />
        </g>
      </g>
      <g
         id="text_4">
        <!-- 3 -->
        <g
           transform="matrix(0.1,0,0,-0.1,242.39742,270.91844)"
           id="g10">
          <defs
             id="defs9">
            <path
               id="DejaVuSans-33"
               d="m 2597,2516 q 453,-97 707,-404 255,-306 255,-756 0,-690 -475,-1069 -475,-378 -1350,-378 -293,0 -604,58 -311,58 -642,174 v 609 q 262,-153 574,-231 313,-78 654,-78 593,0 904,234 311,234 311,681 0,413 -289,645 -289,233 -804,233 h -544 v 519 h 569 q 465,0 712,186 247,186 247,536 0,359 -255,551 -254,193 -729,193 -260,0 -557,-57 -297,-56 -653,-174 v 562 q 360,100 674,150 314,50 592,50 719,0 1137,-327 419,-326 419,-882 0,-388 -222,-655 -222,-267 -631,-370 z"
               transform="scale(0.015625)" />
          </defs>
          <use
             xlink:href="#DejaVuSans-33"
             id="use10" />
        </g>
      </g>
    </g>
    <g
       id="xtick_5">
      <g
         id="line2d_9">
        <path
           d="M 300.88878,256.32 V 34.56"
           clip-path="url(#p3f2b13db65)"
           style="fill:none;stroke:#b0b0b0;stroke-width:0.8;stroke-linecap:square"
           id="path10" />
      </g>
      <g
         id="line2d_10">
        <g
           id="g11">
          <use
             xlink:href="#m36631b471f"
             x="300.88879"
             y="256.32001"
             style="stroke:#000000;stroke-width:0.8"
             id="use11" />
        </g>
      </g>
      <g
         id="text_5">
        <!-- 4 -->
        <g
           transform="matrix(0.1,0,0,-0.1,297.70753,270.91844)"
           id="g12">
          <defs
             id="defs11">
            <path
               id="DejaVuSans-34"
               d="M 2419,4116 825,1625 h 1594 z m -166,550 h 794 V 1625 h 666 V 1100 H 3047 V 0 H 2419 V 1100 H 313 v 609 z"
               transform="scale(0.015625)" />
          </defs>
          <use
             xlink:href="#DejaVuSans-34"
             id="use12" />
        </g>
      </g>
    </g>
    <g
       id="xtick_6">
      <g
         id="line2d_11">
        <path
           d="M 356.19889,256.32 V 34.56"
           clip-path="url(#p3f2b13db65)"
           style="fill:none;stroke:#b0b0b0;stroke-width:0.8;stroke-linecap:square"
           id="path12" />
      </g>
      <g
         id="line2d_12">
        <g
           id="g13">
          <use
             xlink:href="#m36631b471f"
             x="356.19888"
             y="256.32001"
             style="stroke:#000000;stroke-width:0.8"
             id="use13" />
        </g>
      </g>
      <g
         id="text_6">
        <!-- 5 -->
        <g
           transform="matrix(0.1,0,0,-0.1,353.01765,270.91844)"
           id="g14">
          <defs
             id="defs13">
            <path
               id="DejaVuSans-35"
               d="M 691,4666 H 3169 V 4134 H 1269 V 2991 q 137,47 274,70 138,23 276,23 781,0 1237,-428 457,-428 457,-1159 Q 3513,744 3044,326 2575,-91 1722,-91 1428,-91 1123,-41 819,9 494,109 v 635 q 281,-153 581,-228 300,-75 634,-75 541,0 856,284 316,284 316,772 0,487 -316,771 -315,285 -856,285 -253,0 -505,-56 -251,-56 -513,-175 z"
               transform="scale(0.015625)" />
          </defs>
          <use
             xlink:href="#DejaVuSans-35"
             id="use14" />
        </g>
      </g>
    </g>
    <g
       id="xtick_7">
      <g
         id="line2d_13">
        <path
           d="M 411.50901,256.32 V 34.56"
           clip-path="url(#p3f2b13db65)"
           style="fill:none;stroke:#b0b0b0;stroke-width:0.8;stroke-linecap:square"
           id="path14" />
      </g>
      <g
         id="line2d_14">
        <g
           id="g15">
          <use
             xlink:href="#m36631b471f"
             x="411.509"
             y="256.32001"
             style="stroke:#000000;stroke-width:0.8"
             id="use15" />
        </g>
      </g>
      <g
         id="text_7">
        <!-- 6 -->
        <g
           transform="matrix(0.1,0,0,-0.1,408.32776,270.91844)"
           id="g16">
          <defs
             id="defs15">
            <path
               id="DejaVuSans-36"
               d="m 2113,2584 q -425,0 -674,-291 -248,-290 -248,-796 0,-503 248,-796 249,-292 674,-292 425,0 673,292 248,293 248,796 0,506 -248,796 -248,291 -673,291 z m 1253,1979 v -575 q -238,112 -480,171 -242,60 -480,60 -625,0 -955,-422 -329,-422 -376,-1275 184,272 462,417 279,145 613,145 703,0 1111,-427 408,-426 408,-1160 0,-719 -425,-1154 -425,-434 -1131,-434 -810,0 -1238,620 -428,621 -428,1799 0,1106 525,1764 525,658 1409,658 238,0 480,-47 242,-47 505,-140 z"
               transform="scale(0.015625)" />
          </defs>
          <use
             xlink:href="#DejaVuSans-36"
             id="use16" />
        </g>
      </g>
    </g>
    <g
       id="text_8">
      <!-- $t$ in s -->
      <g
         transform="matrix(0.1,0,0,-0.1,245.95,284.59656)"
         id="g22">
        <defs
           id="defs16">
          <path
             id="DejaVuSans-Oblique-74"
             d="m 2706,3500 -87,-447 H 1472 L 1100,1153 q -19,-106 -28,-178 -9,-72 -9,-112 0,-200 120,-291 120,-91 386,-91 h 581 L 2053,0 H 1503 Q 991,0 739,200 488,400 488,806 q 0,72 9,158 9,86 28,189 L 897,3053 H 409 l 91,447 h 478 l 194,994 h 575 l -191,-994 z"
             transform="scale(0.015625)" />
          <path
             id="DejaVuSans-20"
             transform="scale(0.015625)"
             d="" />
          <path
             id="DejaVuSans-69"
             d="m 603,3500 h 575 V 0 H 603 Z m 0,1363 h 575 V 4134 H 603 Z"
             transform="scale(0.015625)" />
          <path
             id="DejaVuSans-6e"
             d="M 3513,2113 V 0 h -575 v 2094 q 0,497 -194,743 -194,247 -581,247 -466,0 -735,-297 -269,-296 -269,-809 V 0 H 581 v 3500 h 578 v -544 q 207,316 486,472 280,156 646,156 603,0 912,-373 310,-373 310,-1098 z"
             transform="scale(0.015625)" />
          <path
             id="DejaVuSans-73"
             d="m 2834,3397 v -544 q -243,125 -506,187 -262,63 -544,63 -428,0 -642,-131 -214,-131 -214,-394 0,-200 153,-314 153,-114 616,-217 l 197,-44 q 612,-131 870,-370 258,-239 258,-667 0,-488 -386,-773 Q 2250,-91 1575,-91 1294,-91 989,-36 684,19 347,128 v 594 q 319,-166 628,-249 309,-82 613,-82 406,0 624,139 219,139 219,392 0,234 -158,359 -157,125 -692,241 l -200,47 q -534,112 -772,345 -237,233 -237,639 0,494 350,762 350,269 994,269 318,0 599,-47 282,-46 519,-140 z"
             transform="scale(0.015625)" />
        </defs>
        <use
           xlink:href="#DejaVuSans-Oblique-74"
           transform="translate(0,0.015625)"
           id="use17" />
        <use
           xlink:href="#DejaVuSans-20"
           transform="translate(39.208984,0.015625)"
           id="use18" />
        <use
           xlink:href="#DejaVuSans-69"
           transform="translate(70.996094,0.015625)"
           id="use19" />
        <use
           xlink:href="#DejaVuSans-6e"
           transform="translate(98.779297,0.015625)"
           id="use20" />
        <use
           xlink:href="#DejaVuSans-20"
           transform="translate(162.1582,0.015625)"
           id="use21" />
        <use
           xlink:href="#DejaVuSans-73"
           transform="translate(193.94531,0.015625)"
           id="use22" />
      </g>
    </g>
  </g>
  <g
     id="matplotlib.axis_2"
     transform="translate(27.482816,-14.159993)">
    <g
       id="ytick_1">
      <g
         id="line2d_15">
        <path
           d="M 63,232.4824 H 453.6"
           clip-path="url(#p3f2b13db65)"
           style="fill:none;stroke:#b0b0b0;stroke-width:0.8;stroke-linecap:square"
           id="path22" />
      </g>
      <g
         id="line2d_16">
        <defs
           id="defs22">
          <path
             id="mafd7f5f650"
             d="M 0,0 H -3.5"
             style="stroke:#000000;stroke-width:0.8" />
        </defs>
        <g
           id="g23">
          <use
             xlink:href="#mafd7f5f650"
             x="63"
             y="232.48241"
             style="stroke:#000000;stroke-width:0.8"
             id="use23" />
        </g>
      </g>
      <g
         id="text_9">
        <!-- −1.0 -->
        <g
           transform="matrix(0.1,0,0,-0.1,31.717187,236.28162)"
           id="g27">
          <defs
             id="defs23">
            <path
               id="DejaVuSans-2212"
               d="M 678,2272 H 4684 V 1741 H 678 Z"
               transform="scale(0.015625)" />
            <path
               id="DejaVuSans-2e"
               d="m 684,794 h 660 V 0 H 684 Z"
               transform="scale(0.015625)" />
          </defs>
          <use
             xlink:href="#DejaVuSans-2212"
             id="use24" />
          <use
             xlink:href="#DejaVuSans-31"
             x="83.789062"
             id="use25" />
          <use
             xlink:href="#DejaVuSans-2e"
             x="147.41211"
             id="use26" />
          <use
             xlink:href="#DejaVuSans-30"
             x="179.19922"
             id="use27" />
        </g>
      </g>
    </g>
    <g
       id="ytick_2">
      <g
         id="line2d_17">
        <path
           d="M 63,194.30926 H 453.6"
           clip-path="url(#p3f2b13db65)"
           style="fill:none;stroke:#b0b0b0;stroke-width:0.8;stroke-linecap:square"
           id="path27" />
      </g>
      <g
         id="line2d_18">
        <g
           id="g28">
          <use
             xlink:href="#mafd7f5f650"
             x="63"
             y="194.30925"
             style="stroke:#000000;stroke-width:0.8"
             id="use28" />
        </g>
      </g>
      <g
         id="text_10">
        <!-- −0.5 -->
        <g
           transform="matrix(0.1,0,0,-0.1,31.717187,198.10848)"
           id="g32">
          <use
             xlink:href="#DejaVuSans-2212"
             id="use29" />
          <use
             xlink:href="#DejaVuSans-30"
             x="83.789062"
             id="use30" />
          <use
             xlink:href="#DejaVuSans-2e"
             x="147.41211"
             id="use31" />
          <use
             xlink:href="#DejaVuSans-35"
             x="179.19922"
             id="use32" />
        </g>
      </g>
    </g>
    <g
       id="ytick_3">
      <g
         id="line2d_19">
        <path
           d="M 63,156.13611 H 453.6"
           clip-path="url(#p3f2b13db65)"
           style="fill:none;stroke:#b0b0b0;stroke-width:0.8;stroke-linecap:square"
           id="path32" />
      </g>
      <g
         id="line2d_20">
        <g
           id="g33">
          <use
             xlink:href="#mafd7f5f650"
             x="63"
             y="156.13611"
             style="stroke:#000000;stroke-width:0.8"
             id="use33" />
        </g>
      </g>
      <g
         id="text_11">
        <!-- 0.0 -->
        <g
           transform="matrix(0.1,0,0,-0.1,40.096875,159.93533)"
           id="g36">
          <use
             xlink:href="#DejaVuSans-30"
             id="use34" />
          <use
             xlink:href="#DejaVuSans-2e"
             x="63.623047"
             id="use35" />
          <use
             xlink:href="#DejaVuSans-30"
             x="95.410156"
             id="use36" />
        </g>
      </g>
    </g>
    <g
       id="ytick_4">
      <g
         id="line2d_21">
        <path
           d="M 63,117.96297 H 453.6"
           clip-path="url(#p3f2b13db65)"
           style="fill:none;stroke:#b0b0b0;stroke-width:0.8;stroke-linecap:square"
           id="path36" />
      </g>
      <g
         id="line2d_22">
        <g
           id="g37">
          <use
             xlink:href="#mafd7f5f650"
             x="63"
             y="117.96297"
             style="stroke:#000000;stroke-width:0.8"
             id="use37" />
        </g>
      </g>
      <g
         id="text_12">
        <!-- 0.5 -->
        <g
           transform="matrix(0.1,0,0,-0.1,40.096875,121.76219)"
           id="g40">
          <use
             xlink:href="#DejaVuSans-30"
             id="use38" />
          <use
             xlink:href="#DejaVuSans-2e"
             x="63.623047"
             id="use39" />
          <use
             xlink:href="#DejaVuSans-35"
             x="95.410156"
             id="use40" />
        </g>
      </g>
    </g>
    <g
       id="ytick_5">
      <g
         id="line2d_23">
        <path
           d="M 63,79.78983 H 453.6"
           clip-path="url(#p3f2b13db65)"
           style="fill:none;stroke:#b0b0b0;stroke-width:0.8;stroke-linecap:square"
           id="path40" />
      </g>
      <g
         id="line2d_24">
        <g
           id="g41">
          <use
             xlink:href="#mafd7f5f650"
             x="63"
             y="79.789833"
             style="stroke:#000000;stroke-width:0.8"
             id="use41" />
        </g>
      </g>
      <g
         id="text_13">
        <!-- 1.0 -->
        <g
           transform="matrix(0.1,0,0,-0.1,40.096875,83.589048)"
           id="g44">
          <use
             xlink:href="#DejaVuSans-31"
             id="use42" />
          <use
             xlink:href="#DejaVuSans-2e"
             x="63.623047"
             id="use43" />
          <use
             xlink:href="#DejaVuSans-30"
             x="95.410156"
             id="use44" />
        </g>
      </g>
    </g>
    <g
       id="ytick_6">
      <g
         id="line2d_25">
        <path
           d="M 63,41.616687 H 453.6"
           clip-path="url(#p3f2b13db65)"
           style="fill:none;stroke:#b0b0b0;stroke-width:0.8;stroke-linecap:square"
           id="path44" />
      </g>
      <g
         id="line2d_26">
        <g
           id="g45">
          <use
             xlink:href="#mafd7f5f650"
             x="63"
             y="41.616688"
             style="stroke:#000000;stroke-width:0.8"
             id="use45" />
        </g>
      </g>
      <g
         id="text_14">
        <!-- 1.5 -->
        <g
           transform="matrix(0.1,0,0,-0.1,40.096875,45.415906)"
           id="g48">
          <use
             xlink:href="#DejaVuSans-31"
             id="use46" />
          <use
             xlink:href="#DejaVuSans-2e"
             x="63.623047"
             id="use47" />
          <use
             xlink:href="#DejaVuSans-35"
             x="95.410156"
             id="use48" />
        </g>
      </g>
    </g>
    <g
       id="text_15">
      <!-- $e$ in deg$^{\circ}$ -->
      <g
         transform="matrix(0,-0.1,-0.1,0,25.617187,168.09)"
         id="g57">
        <defs
           id="defs48">
          <path
             id="DejaVuSans-Oblique-65"
             d="m 3078,2063 q 10,50 14,103 5,53 5,106 0,381 -224,603 -223,222 -607,222 -428,0 -757,-271 -328,-270 -496,-767 z m 500,-450 H 903 q -19,-119 -25,-188 -6,-69 -6,-119 0,-434 267,-672 267,-237 755,-237 375,0 709,84 335,85 622,247 L 3116,159 Q 2806,34 2476,-28 2147,-91 1806,-91 1078,-91 686,257 294,606 294,1247 q 0,547 195,1017 195,470 574,839 243,231 579,356 336,125 714,125 594,0 945,-356 352,-356 352,-956 0,-144 -19,-308 -18,-164 -56,-351 z"
             transform="scale(0.015625)" />
          <path
             id="DejaVuSans-64"
             d="m 2906,2969 v 1894 h 575 V 0 H 2906 V 525 Q 2725,213 2448,61 2172,-91 1784,-91 1150,-91 751,415 353,922 353,1747 q 0,825 398,1331 399,506 1033,506 388,0 664,-152 277,-151 458,-463 z M 947,1747 q 0,-634 261,-995 261,-361 717,-361 456,0 718,361 263,361 263,995 0,634 -263,995 -262,361 -718,361 -456,0 -717,-361 -261,-361 -261,-995 z"
             transform="scale(0.015625)" />
          <path
             id="DejaVuSans-65"
             d="M 3597,1894 V 1613 H 953 q 38,-594 358,-905 320,-311 892,-311 331,0 642,81 311,81 618,244 V 178 Q 3153,47 2828,-22 2503,-91 2169,-91 1331,-91 842,396 353,884 353,1716 q 0,859 464,1363 464,505 1252,505 706,0 1117,-455 411,-454 411,-1235 z m -575,169 q -6,471 -264,752 -258,282 -683,282 -481,0 -770,-272 -289,-272 -333,-766 z"
             transform="scale(0.015625)" />
          <path
             id="DejaVuSans-67"
             d="m 2906,1791 q 0,625 -258,968 -257,344 -723,344 -462,0 -720,-344 -258,-343 -258,-968 0,-622 258,-966 258,-344 720,-344 466,0 723,344 258,344 258,966 z M 3481,434 q 0,-893 -397,-1329 -396,-436 -1215,-436 -303,0 -572,45 -269,45 -522,139 v 559 q 253,-137 500,-202 247,-66 503,-66 566,0 847,295 281,295 281,892 V 616 Q 2728,306 2450,153 2172,0 1784,0 1141,0 747,490 353,981 353,1791 q 0,812 394,1302 394,491 1037,491 388,0 666,-153 278,-153 456,-462 v 531 h 575 z"
             transform="scale(0.015625)" />
          <path
             id="DejaVuSans-2218"
             d="m 2000,2619 q -250,0 -422,-174 -172,-173 -172,-423 0,-247 172,-417 172,-170 422,-170 250,0 422,170 172,170 172,417 0,247 -174,422 -173,175 -420,175 z m 0,403 q 200,0 384,-77 185,-76 319,-220 144,-140 216,-319 72,-178 72,-384 0,-412 -289,-698 -289,-286 -708,-286 -422,0 -704,281 -281,281 -281,703 0,419 287,709 288,291 704,291 z"
             transform="scale(0.015625)" />
        </defs>
        <use
           xlink:href="#DejaVuSans-Oblique-65"
           transform="translate(0,0.015625)"
           id="use49" />
        <use
           xlink:href="#DejaVuSans-20"
           transform="translate(61.523438,0.015625)"
           id="use50" />
        <use
           xlink:href="#DejaVuSans-69"
           transform="translate(93.310547,0.015625)"
           id="use51" />
        <use
           xlink:href="#DejaVuSans-6e"
           transform="translate(121.09375,0.015625)"
           id="use52" />
        <use
           xlink:href="#DejaVuSans-20"
           transform="translate(184.47266,0.015625)"
           id="use53" />
        <use
           xlink:href="#DejaVuSans-64"
           transform="translate(216.25977,0.015625)"
           id="use54" />
        <use
           xlink:href="#DejaVuSans-65"
           transform="translate(279.73633,0.015625)"
           id="use55" />
        <use
           xlink:href="#DejaVuSans-67"
           transform="translate(341.25977,0.015625)"
           id="use56" />
        <use
           xlink:href="#DejaVuSans-2218"
           transform="matrix(0.7,0,0,0.7,405.69336,38.296875)"
           id="use57" />
      </g>
    </g>
  </g>
  <g
     id="line2d_27"
     transform="translate(27.482816,-14.159993)">
    <path
       d="m 80.754545,146.96158 2.212405,22.79929 0.553101,4.67698 1.106202,11.08853 1.106202,6.50394 0.553101,3.08515 0.553102,1.1536 0.553101,-0.28325 0.553101,-1.47348 1.659303,-6.48485 1.659303,-6.20467 0.553102,-2.49729 0.553101,-3.32411 1.106202,-4.8228 0.553101,-1.63992 1.106202,-4.48305 0.553101,-1.14443 0.553101,-1.90041 1.659304,-8.08775 1.106202,-5.37241 0.553101,-1.92499 0.553097,-1.48112 1.10621,-2.23389 1.1062,-1.09405 0.5531,-0.0366 1.6593,-0.89936 1.1062,-2.17511 1.10621,-2.42628 0.5531,-0.85355 0.5531,-0.53137 0.5531,0.055 1.1062,2.15831 2.21241,7.82473 1.1062,4.02482 2.2124,6.81012 1.10621,1.6321 1.1062,1.56395 1.1062,-0.14994 1.1062,-0.37104 1.65931,-1.21757 0.5531,-0.22965 0.5531,-0.0336 0.5531,0.11231 0.5531,0.59298 1.1062,2.36215 0.5531,1.36721 1.65931,5.83156 1.1062,2.60417 0.5531,0.74133 0.5531,-0.0611 0.5531,-0.39089 0.5531,-0.99938 1.65931,-5.6042 2.2124,-9.68483 0.5531,-2.07226 1.1062,-2.37002 0.55311,-0.77599 1.1062,-1.04067 1.1062,-0.53519 1.1062,-0.77491 0.5531,0.097 0.5531,0.47563 0.55311,0.16949 0.5531,-0.0275 1.6593,1.35591 0.5531,-0.43212 0.5531,0.42067 0.5531,0.83186 0.5531,1.98218 0.55311,1.50555 1.1062,5.77193 1.1062,7.61852 1.6593,7.98048 0.5531,0.67948 1.10621,-1.07572 1.1062,-5.63893 1.1062,-7.78404 1.1062,-8.56438 0.5531,-3.42222 0.55311,-2.10868 0.5531,-1.40477 0.5531,-0.56497 0.5531,0.36494 0.5531,1.53838 0.5531,1.20856 0.5531,1.71367 0.5531,0.31378 0.5531,0.69544 0.55311,-0.43785 1.1062,3.9584 0.5531,3.53392 0.5531,1.39729 1.1062,6.53845 0.5531,3.28594 0.5531,1.56587 1.10621,4.01352 0.5531,2.5828 1.1062,3.89289 0.5531,0.4138 0.5531,0.0962 0.5531,-2.40339 0.5531,-1.23146 0.5531,-2.26214 0.55311,-1.47501 0.5531,-1.95218 0.5531,-0.94898 0.5531,-0.49549 1.1062,-0.21682 0.5531,0.66421 1.1062,-1.46737 1.65931,-7.51172 1.1062,-5.94222 0.5531,-2.0678 1.1062,-2.98789 0.5531,-0.73651 0.55311,-0.32829 0.5531,-0.48464 0.5531,-0.15682 0.5531,-0.0304 0.5531,-0.1478 0.5531,0.0342 1.1062,0.61726 0.5531,0.0571 0.55311,0.77827 0.5531,0.42907 0.5531,0.68765 1.6593,5.04261 1.1062,4.47243 0.5531,1.48753 0.55311,1.96744 0.5531,1.05282 0.5531,1.44447 0.5531,0.89325 0.5531,1.6132 0.5531,1.23299 0.5531,-0.0527 1.1062,1.52082 0.55311,0.6123 1.1062,0.35272 0.5531,0.46113 0.5531,-1.51319 0.5531,-1.08106 2.21241,-13.0475 1.6593,-5.00191 0.5531,-1.39194 1.1062,-3.68394 0.5531,-2.29497 1.65931,-10.34263 0.5531,-2.32856 0.5531,-1.39561 0.5531,-0.52374 0.5531,0.0275 0.5531,-0.47793 0.5531,-0.14735 1.10621,0.72529 0.5531,0.57031 0.5531,0.12292 0.5531,0.77186 0.5531,0.0527 1.1062,-0.38708 0.5531,0.38784 0.5531,1.1345 0.55311,2.6225 1.1062,9.47305 1.1062,12.32488 0.5531,5.40066 1.1062,5.61352 0.5531,0.89783 0.55311,-0.80851 0.5531,-1.02762 0.5531,-1.81322 0.5531,-2.8365 0.5531,-1.38141 1.6593,-5.48623 0.5531,-1.1262 0.55311,-0.57878 0.5531,-0.2085 0.5531,0.16346 2.2124,1.91644 1.1062,1.60014 0.55311,1.1891 0.5531,1.7439 1.1062,4.78012 0.5531,3.50047 0.5531,2.44614 1.1062,6.38484 0.5531,2.71106 0.55311,1.11542 0.5531,-1.01694 0.5531,0.39242 0.5531,-0.43059 1.1062,-3.79517 0.5531,0.43288 0.5531,-0.0603 0.5531,0.27408 1.10621,3.10729 1.1062,2.2797 0.5531,0.26721 0.5531,0.86806 0.5531,-0.28859 1.1062,-2.66219 0.55311,-2.74847 1.1062,-8.33014 1.1062,-11.98583 1.1062,-8.70432 0.5531,-2.61379 0.5531,-1.07419 0.55311,-0.0901 0.5531,0.94135 0.5531,0.50159 1.1062,-0.56954 0.5531,-0.81767 0.5531,0.8902 0.5531,-1.9224 0.5531,-0.40693 0.55311,1.86514 0.5531,0.57794 0.5531,0.4054 1.1062,-1.66816 0.5531,-0.37181 0.5531,-1.09022 1.65931,-7.82397 1.1062,-5.6168 0.5531,-2.10945 1.1062,-1.29407 0.5531,-0.10688 1.1062,-1.00472 0.5531,-1.58953 0.55311,-0.78178 0.5531,0.12902 0.5531,0.26569 0.5531,0.65428 0.5531,1.33988 1.1062,1.52998 1.65931,2.87749 1.1062,0.81309 0.5531,0.62757 1.6593,-0.0275 0.5531,0.87875 0.5531,2.25679 0.55311,3.61424 1.6593,17.51313 0.5531,6.43342 0.5531,4.46419 0.5531,1.12458 0.5531,0.0802 0.5531,-2.59654 0.55311,-4.17714 1.1062,-4.64536 0.5531,-1.32801 1.6593,-1.95145 1.10621,-2.26443 0.5531,-0.81164 0.5531,-0.46326 0.5531,-0.15804 0.5531,0.19499 1.1062,1.44874 0.5531,1.42989 1.10621,4.76768 1.1062,7.79846 1.6593,12.49407 1.1062,5.24499 0.5531,1.60709 0.5531,0.0168 1.10621,0.34967 0.5531,-0.36952 0.5531,-2.79733 0.5531,0.48022 0.5531,-2.5973 0.5531,-0.93219 0.5531,1.19482 1.10621,7.72701 0.5531,1.15741 0.5531,1.74375 0.5531,2.70342 0.5531,-0.87646 0.5531,-0.0237 1.1062,2.09036 0.5531,-2.27436 0.55311,-1.07419 0.5531,-1.41164 1.1062,-14.65162 2.2124,-25.53157 0.5531,-2.97155 0.55311,0.31913 1.6593,3.03858 0.5531,0.8789 1.1062,-6.10328 0.5531,1.17879 0.5531,3.58659 0.55311,2.45423 0.5531,3.32949 0.5531,5.58379 0.5531,4.02406 2.2124,9.62955 0.55311,0.33746 0.5531,1.79413 0.5531,0.25576 0.5531,-0.47105 0.5531,0.0252 0.5531,-1.48952 1.6593,-8.35533 1.10621,-7.94238 1.1062,-5.08772 0.5531,-2.57814 1.1062,-3.25235 1.6593,-8.73478 0.55311,-2.00638 0.5531,-1.1681 0.5531,0.50389 0.5531,1.97355 1.1062,5.06787 1.1062,2.75304 0.5531,0.33746 1.10621,-2.72862 1.1062,-2.67823 0.5531,-1.01311 0.5531,-0.50465 1.6593,-3.25999 0.55311,-1.27498 0.5531,-0.24278 0.5531,0.39013 0.5531,2.71411 0.5531,4.67544 0.5531,6.27093 1.6593,22.53758 0.55311,4.91136 0.5531,0.97799 0.5531,-3.53941 1.1062,-15.99516 0.5531,-6.08159 0.5531,-0.35577 0.5531,8.03781 1.65931,46.44488 1.1062,18.18263 0.5531,5.35264 0.5531,0.2214 0.5531,-3.73028 0.5531,-5.50685 1.1062,-20.73795 1.10621,-22.64049 0.5531,-8.9997 1.1062,-12.74695 0.5531,-4.93721 0.5531,-3.45689 0.5531,-5.45799 1.10621,-15.93424 0.5531,-9.20049 0.5531,-6.41003 0.5531,-4.88998 0.5531,-0.99861 0.5531,2.75992 1.1062,12.51316 0.5531,8.23547 0.55311,5.41142 0.5531,3.75471 0.5531,1.88576 0.5531,0.96883 0.5531,1.62923 0.5531,3.41344 0.5531,4.77592 1.10621,6.79445 0.5531,-0.37887 0.5531,-1.18654 0.5531,-1.81644 0.5531,-0.70521 0.5531,1.12039 0.5531,1.58975 0.5531,1.15269 0.5531,-0.0108 0.55311,-1.49914 1.6593,-6.05418 0.5531,-0.55031 0.5531,0.20308 0.5531,0.53679 1.1062,1.28842 0.5531,-0.0709 0.55311,-1.33049 0.5531,-0.81622 0.5531,-1.19863 0.5531,-2.86681 0.5531,-3.97611 0.5531,0.15422 1.1062,-6.72077 0.5531,-5.49616 0.55311,-3.7341 0.5531,-2.00791 0.5531,-4.82356 0.5531,-2.2629 0.5531,-1.56128 0.5531,2.98667 0.5531,-5.60077 0.5531,-1.32308 0.5531,3.2974 0.55311,1.63457 0.5531,-1.28185 0.5531,7.77739 0.5531,3.9807 0.5531,-0.34432 0.5531,6.12526 0.5531,11.75504 0.5531,4.43572 1.10621,14.74475 0.5531,-2.65624 0.5531,1.03175 1.6593,-19.2608 0.5531,-2.90192 0.5531,0.33363 0.55311,1.49486 0.5531,0.94441 0.5531,2.84008 0.5531,-2.75686 0.5531,0.61458 0.5531,0.28936 0.5531,-4.16775 0.5531,1.24826 0.5531,7.25137 0.55311,1.62923 1.1062,7.1509 1.1062,8.30327 2.2124,24.98493 1.10621,12.30092 1.1062,14.88447 1.1062,13.54459 1.1062,7.88276 0.5531,1.32079 0.5531,0.98486 0.55311,0.71003 0.5531,-0.61841 1.1062,2.96224 0.5531,0.2214 0.5531,1.74833 0.5531,1.35133 1.1062,0.92379 0.55311,-0.92379 1.1062,-9.93265 1.1062,-9.01039 0.5531,-5.52136 0.5531,-3.05157 1.65931,-15.98309 1.6593,-22.4878 2.2124,-17.12111 0.5531,-2.20587 0.55311,-6.27826 2.2124,-18.99931 1.1062,-6.05808 0.5531,0.27103 0.55311,1.50555 v 0"
       clip-path="url(#p3f2b13db65)"
       style="fill:none;stroke:#009682;stroke-width:1.5;stroke-linecap:square"
       id="path57" />
  </g>
  <rect
     style="fill:#ffffff;fill-opacity:1;stroke:#d6d6d6;stroke-width:0.999997;stroke-linejoin:round;stroke-dashoffset:16;stroke-opacity:1"
     id="rect83"
     width="104.64687"
     height="32.356251"
     x="95.482811"
     y="25.400007"
     ry="1.7412354" />
  <g
     id="line2d_28"
     transform="translate(27.482816,-14.159993)">
    <path
       d="m 80.754545,167.52774 1.106203,2.37361 0.553101,0.96349 1.106202,2.95613 1.106202,1.15893 1.106202,1.68573 0.553101,0.18705 0.553102,-0.28401 0.553101,0.3802 0.553101,-0.28935 2.212404,-4.32272 0.553101,-1.74604 1.659304,-7.19541 0.553101,-1.69787 1.106202,-4.765 1.106202,-5.39501 1.659303,-4.1514 0.553102,-0.69475 0.553101,-2.2087 1.106202,-2.94621 0.553101,-0.96578 0.553097,-0.0321 0.55311,-0.71613 0.5531,-0.13208 0.5531,0.39089 1.1062,0.30997 1.6593,1.9934 0.5531,-0.18094 1.10621,-0.21682 0.5531,-0.15269 1.1062,0.009 1.1062,0.11146 0.5531,0.31913 1.65931,2.01783 0.5531,0.84821 0.5531,1.15283 1.6593,2.27825 0.5531,0.2327 1.65931,-0.59542 1.1062,0.38646 0.5531,0.36562 0.5531,0.51145 1.1062,1.49806 2.21241,5.1709 0.5531,1.19257 1.1062,3.06958 1.6593,6.3491 1.10621,4.79608 0.5531,1.62694 0.5531,0.43975 0.5531,-0.25194 0.5531,0.0305 0.5531,-0.17178 0.5531,0.16567 0.5531,-0.0542 1.10621,-3.2638 1.1062,-2.29802 0.5531,-1.2704 1.6593,-4.9138 0.5531,-1.1878 1.10621,-1.79734 1.1062,-2.1467 0.5531,-0.40818 0.5531,0.33205 0.5531,-0.20859 1.1062,-1.15816 0.5531,0.76824 0.55311,1.18669 0.5531,0.80904 0.5531,0.38394 1.1062,0.11109 1.1062,2.18152 1.1062,2.41552 1.10621,1.2123 0.5531,0.34203 0.5531,0.097 0.5531,-0.25271 0.5531,-0.559 1.1062,-2.17175 0.5531,-0.16544 0.55311,-0.8986 1.1062,-2.39193 1.1062,-3.6111 1.6593,-6.84109 0.5531,-1.0467 0.55311,-0.5161 1.1062,0.98105 0.5531,0.21911 0.5531,-0.16109 0.5531,0.5245 1.1062,4.57001 1.10621,3.2192 1.1062,4.97489 1.1062,3.90535 0.5531,2.69807 0.5531,2.02776 0.5531,1.57121 0.5531,1.91705 1.10621,2.46141 0.5531,0.723 1.1062,1.10549 1.1062,-0.47106 0.5531,-0.15727 1.1062,-1.5002 0.55311,-0.55581 1.1062,-2.12319 2.2124,-4.17385 0.5531,-1.35667 0.5531,-0.84592 1.10621,-2.4188 1.1062,-1.77971 0.5531,-1.46004 0.5531,-0.85997 0.5531,-1.26803 0.5531,-0.64971 0.5531,-0.99634 0.55311,-0.73813 0.5531,-0.22084 1.6593,-1.38354 0.5531,-0.12407 0.5531,0.002 0.5531,-0.12979 0.5531,0.25606 1.10621,-0.0812 0.5531,0.48984 0.5531,0.21293 0.5531,0.96013 1.6593,2.33711 0.5531,0.7837 0.55311,0.55465 1.6593,2.98583 1.1062,1.11252 0.5531,0.8805 0.5531,0.59626 1.10621,0.47488 0.5531,0.0412 0.5531,-0.35424 0.5531,-0.084 1.1062,-2.10518 1.1062,-1.78879 1.10621,-4.01229 0.5531,-1.10136 0.5531,-1.35303 1.1062,-5.75415 0.5531,-1.9098 1.1062,-1.75367 1.10621,-5.54122 0.5531,-1.48951 0.5531,-0.80775 0.5531,-0.27942 0.5531,0.44815 0.5531,-0.2298 0.5531,0.15651 0.5531,-0.3031 0.5531,-0.64512 0.55311,-0.26951 0.5531,0.16415 0.5531,0.58863 1.1062,2.07967 1.1062,4.2334 1.1062,4.90449 0.55311,3.17287 2.7655,6.84086 0.5531,2.21618 0.5531,1.23918 0.5531,0.60107 0.55311,-1.26949 0.5531,-0.31462 0.5531,0.0551 0.5531,0.56481 1.1062,-3.35145 0.5531,-0.54686 0.5531,-0.36271 1.10621,-1.70414 0.5531,-0.22224 1.1062,0.3689 0.5531,0.74166 0.5531,0.38549 0.5531,1.19439 0.5531,1.7765 0.5531,1.12031 0.55311,0.75674 1.1062,4.52764 0.5531,1.76665 0.5531,1.14138 0.5531,2.0331 0.5531,2.97216 0.5531,1.64832 0.5531,0.44204 0.55311,0.0878 1.1062,3.6234 0.5531,0.65581 0.5531,0.20308 0.5531,-0.7314 0.5531,-1.23528 0.5531,-0.65505 0.5531,-0.11376 0.55311,-0.30843 0.5531,-0.0886 0.5531,-0.49548 0.5531,-0.90089 0.5531,-1.27956 0.5531,-1.65366 1.6593,-7.62165 1.65931,-9.01404 1.6593,-5.43702 1.1062,-4.68438 0.5531,-2.6599 0.55311,-0.83294 0.5531,-0.24583 0.5531,-0.0374 0.5531,-0.48709 0.5531,-1.17115 0.5531,0.20384 0.5531,0.96044 0.5531,0.30004 0.5531,-0.52298 1.10621,1.40325 0.5531,0.0283 2.2124,-1.32919 1.1062,-3.19815 0.55311,-0.99708 0.5531,-1.29254 1.1062,-4.81669 0.5531,-1.45821 0.5531,-0.26263 0.5531,-3.01797 0.5531,-2.32856 0.5531,-1.61167 0.5531,-0.42831 0.55311,0.5245 0.5531,-0.49396 0.5531,-0.1275 0.5531,-1.1032 0.5531,-0.26034 0.5531,-0.0328 0.5531,0.48785 1.1062,1.71092 1.10621,3.35542 0.5531,2.03463 0.5531,2.56905 0.5531,0.98182 0.5531,1.49104 1.1062,3.6066 1.10621,5.345 2.2124,13.75744 0.5531,2.34941 0.5531,0.32218 0.5531,0.94418 0.5531,1.44233 0.55311,2.2981 0.5531,0.12857 0.5531,-1.75871 0.5531,-0.59299 0.5531,0.69979 0.5531,-0.75315 0.5531,-2.15976 0.5531,-1.0235 0.55311,0.29172 0.5531,-1.36133 0.5531,-0.83688 0.5531,0.0501 1.1062,0.61473 0.5531,0.49236 0.5531,0.91723 0.5531,2.09005 0.55311,1.54082 0.5531,0.94555 0.5531,2.76068 0.5531,3.54018 0.5531,2.06822 0.5531,1.28185 0.5531,2.47744 0.5531,4.11812 0.5531,1.985 0.5531,0.60085 0.55311,-0.25729 1.1062,4.54871 0.5531,1.12382 0.5531,0.0702 0.5531,-0.47029 0.5531,-1.37576 1.65931,-2.27207 0.5531,0.40006 0.5531,0.21835 0.5531,-0.0611 0.5531,-0.45808 0.5531,-0.79018 1.1062,-3.07218 1.10621,-5.19536 0.5531,-3.38443 1.1062,-8.93267 0.5531,-3.27991 2.76551,-12.34192 0.5531,-3.46688 0.5531,-1.72924 1.1062,0.19163 0.5531,-0.58787 0.5531,-1.78345 0.5531,1.35057 0.5531,0.96807 0.55311,0.19315 0.5531,-0.28401 0.5531,0.88028 0.5531,0.20537 0.5531,-0.67338 0.5531,0.097 0.5531,-0.66421 1.10621,-1.99874 0.5531,-1.41546 0.5531,-1.74299 0.5531,-1.31697 1.1062,-3.63714 0.5531,-1.30323 1.1062,-3.6295 1.10621,-1.39714 0.5531,-1.446 0.5531,-0.42219 0.5531,0.24354 0.5531,-0.32829 0.5531,-0.865 0.5531,-0.20079 0.5531,1.55135 1.65931,2.51027 0.5531,0.48175 0.5531,1.16504 0.5531,2.26901 0.5531,1.35591 0.5531,2.68968 0.5531,1.48494 3.31861,11.5092 0.5531,1.45974 1.1062,5.94279 1.65931,7.94765 0.5531,3.5356 0.5531,2.23236 2.7655,19.08123 2.21241,15.73802 1.6593,10.99005 1.65931,4.7037 0.5531,2.33238 0.5531,-0.15499 0.5531,-1.62159 0.5531,-0.47411 0.5531,1.08793 0.5531,-2.51943 1.1062,-8.16294 0.5531,-1.72848 0.55311,-0.98716 0.5531,-3.97535 1.1062,-10.9618 1.1062,-8.09881 0.5531,-2.35529 0.5531,-2.90955 0.5531,-1.6361 0.55311,-4.18989 0.5531,-6.09014 1.1062,-8.0298 0.5531,-2.18091 0.5531,-0.35928 0.5531,0.88599 0.5531,1.98394 1.10621,5.65398 1.6593,12.33069 0.5531,1.56968 0.5531,0.0748 0.5531,-1.13527 2.76551,-17.96894 0.5531,-4.53665 2.76551,-41.34586 0.5531,-9.95556 2.7655,-38.39302 1.1062,-9.153919 1.10621,-8.100341 h 0.5531 l 0.5531,-0.419905 0.5531,-1.839945 0.5531,1.786503 0.5531,3.985276 1.1062,3.985276 0.5531,4.283027 1.10621,11.734424 1.1062,7.207089 0.5531,5.275528 1.6593,19.539307 1.10621,10.98165 1.6593,12.46964 0.5531,2.72938 0.5531,1.14901 0.5531,0.18934 0.5531,0.69322 0.5531,-0.46037 0.55311,-1.54296 1.1062,-4.17461 1.1062,-4.62582 0.5531,-1.8346 0.5531,-1.25514 0.5531,2.16748 0.55311,3.34167 0.5531,4.18607 1.1062,6.85589 1.1062,11.88483 3.31861,37.35166 1.1062,11.57638 2.2124,16.46561 1.10621,5.62214 1.1062,4.48229 0.5531,1.93767 0.5531,1.2307 0.5531,2.02318 1.1062,1.84452 0.5531,1.60633 0.55311,0.11452 0.5531,0.62146 0.5531,0.37715 0.5531,-0.44358 0.5531,0.33287 0.5531,-0.52068 0.5531,-1.01922 0.5531,-0.56649 1.65931,-5.49235 0.5531,-2.64616 1.1062,-6.47417 2.2124,-18.64682 5.53102,-53.5928 1.1062,-9.04932 0.5531,-5.86111 0.5531,-3.36305 0.5531,-2.0583 0.5531,-1.08029 0.5531,-0.058 0.55311,0.52984 v 0"
       clip-path="url(#p3f2b13db65)"
       style="fill:none;stroke:#eeb70d;stroke-width:1.5;stroke-linecap:square"
       id="path58" />
  </g>
  <g
     id="patch_3"
     transform="translate(27.482816,-14.159993)">
    <path
       d="M 63,256.32 V 34.56"
       style="fill:none;stroke:#000000;stroke-width:0.8;stroke-linecap:square;stroke-linejoin:miter"
       id="path59" />
  </g>
  <g
     id="patch_4"
     transform="translate(27.482816,-14.159993)">
    <path
       d="M 453.6,256.32 V 34.56"
       style="fill:none;stroke:#000000;stroke-width:0.8;stroke-linecap:square;stroke-linejoin:miter"
       id="path60" />
  </g>
  <g
     id="patch_5"
     transform="translate(27.482816,-14.159993)">
    <path
       d="M 63,256.32 H 453.6"
       style="fill:none;stroke:#000000;stroke-width:0.8;stroke-linecap:square;stroke-linejoin:miter"
       id="path61" />
  </g>
  <g
     id="patch_6"
     transform="translate(27.482816,-14.159993)">
    <path
       d="M 63,34.56 H 453.6"
       style="fill:none;stroke:#000000;stroke-width:0.8;stroke-linecap:square;stroke-linejoin:miter"
       id="path62" />
  </g>
  <g
     id="line2d_29"
     transform="translate(27.482816,-14.159993)">
    <path
       d="M 72,47.658437 H 82 92"
       style="fill:none;stroke:#009682;stroke-width:1.5;stroke-linecap:square"
       id="path64" />
  </g>
  <g
     id="text_16"
     transform="translate(27.482816,-14.159993)">
    <!-- GP -->
    <g
       transform="matrix(0.1,0,0,-0.1,100,51.158437)"
       id="g65">
      <defs
         id="defs64">
        <path
           id="DejaVuSans-47"
           d="M 3809,666 V 1919 H 2778 v 519 H 4434 V 434 Q 4069,175 3628,42 3188,-91 2688,-91 1594,-91 976,548 359,1188 359,2328 q 0,1144 617,1783 618,639 1712,639 456,0 867,-113 411,-112 758,-331 v -672 q -350,297 -744,447 -394,150 -828,150 -857,0 -1287,-478 -429,-478 -429,-1425 0,-944 429,-1422 430,-478 1287,-478 334,0 596,58 263,58 472,180 z"
           transform="scale(0.015625)" />
        <path
           id="DejaVuSans-50"
           d="M 1259,4147 V 2394 h 794 q 441,0 681,228 241,228 241,650 0,419 -241,647 -240,228 -681,228 z m -631,519 h 1425 q 785,0 1186,-355 402,-355 402,-1039 0,-691 -402,-1044 -401,-353 -1186,-353 H 1259 V 0 H 628 Z"
           transform="scale(0.015625)" />
      </defs>
      <use
         xlink:href="#DejaVuSans-47"
         id="use64" />
      <use
         xlink:href="#DejaVuSans-50"
         x="77.490234"
         id="use65" />
    </g>
  </g>
  <g
     id="line2d_30"
     transform="translate(27.482816,-14.159993)">
    <path
       d="M 72,62.336562 H 82 92"
       style="fill:none;stroke:#eeb70d;stroke-width:1.5;stroke-linecap:square"
       id="path65" />
  </g>
  <g
     id="text_17"
     transform="translate(27.482816,-14.159993)">
    <!-- Measurement -->
    <g
       transform="matrix(0.1,0,0,-0.1,100,65.836562)"
       id="g76">
      <defs
         id="defs65">
        <path
           id="DejaVuSans-4d"
           d="m 628,4666 h 941 L 2759,1491 3956,4666 h 941 V 0 H 4281 V 4097 L 3078,897 H 2444 L 1241,4097 V 0 H 628 Z"
           transform="scale(0.015625)" />
        <path
           id="DejaVuSans-61"
           d="m 2194,1759 q -697,0 -966,-159 -269,-159 -269,-544 0,-306 202,-486 202,-179 548,-179 479,0 768,339 289,339 289,901 v 128 z m 1147,238 V 0 H 2766 V 531 Q 2569,213 2275,61 1981,-91 1556,-91 q -537,0 -855,302 -317,302 -317,808 0,590 395,890 396,300 1180,300 h 807 v 57 q 0,397 -261,614 -261,217 -733,217 -300,0 -585,-72 -284,-72 -546,-216 v 532 q 315,122 612,182 297,61 578,61 760,0 1135,-394 375,-393 375,-1193 z"
           transform="scale(0.015625)" />
        <path
           id="DejaVuSans-75"
           d="m 544,1381 v 2119 h 575 V 1403 q 0,-497 193,-746 194,-248 582,-248 465,0 735,297 271,297 271,810 v 1984 h 575 V 0 H 2900 V 538 Q 2691,219 2414,64 2138,-91 1772,-91 1169,-91 856,284 544,659 544,1381 Z m 1447,2203 z"
           transform="scale(0.015625)" />
        <path
           id="DejaVuSans-72"
           d="m 2631,2963 q -97,56 -211,82 -114,27 -251,27 -488,0 -749,-317 -261,-317 -261,-911 V 0 H 581 v 3500 h 578 v -544 q 182,319 472,473 291,155 707,155 59,0 131,-8 72,-7 159,-23 z"
           transform="scale(0.015625)" />
        <path
           id="DejaVuSans-6d"
           d="m 3328,2828 q 216,388 516,572 300,184 706,184 547,0 844,-383 297,-382 297,-1088 V 0 h -578 v 2094 q 0,503 -179,746 -178,244 -543,244 -447,0 -707,-297 -259,-296 -259,-809 V 0 h -578 v 2094 q 0,506 -178,748 -178,242 -550,242 -441,0 -701,-298 -259,-298 -259,-808 V 0 H 581 v 3500 h 578 v -544 q 197,322 472,475 275,153 653,153 382,0 649,-194 267,-193 395,-562 z"
           transform="scale(0.015625)" />
        <path
           id="DejaVuSans-74"
           d="M 1172,4494 V 3500 H 2356 V 3053 H 1172 V 1153 q 0,-428 117,-550 117,-122 477,-122 h 590 V 0 H 1766 Q 1100,0 847,248 594,497 594,1153 V 3053 H 172 v 447 h 422 v 994 z"
           transform="scale(0.015625)" />
      </defs>
      <use
         xlink:href="#DejaVuSans-4d"
         id="use66" />
      <use
         xlink:href="#DejaVuSans-65"
         x="86.279297"
         id="use67" />
      <use
         xlink:href="#DejaVuSans-61"
         x="147.80273"
         id="use68" />
      <use
         xlink:href="#DejaVuSans-73"
         x="209.08203"
         id="use69" />
      <use
         xlink:href="#DejaVuSans-75"
         x="261.18164"
         id="use70" />
      <use
         xlink:href="#DejaVuSans-72"
         x="324.56055"
         id="use71" />
      <use
         xlink:href="#DejaVuSans-65"
         x="363.42383"
         id="use72" />
      <use
         xlink:href="#DejaVuSans-6d"
         x="424.94727"
         id="use73" />
      <use
         xlink:href="#DejaVuSans-65"
         x="522.35938"
         id="use74" />
      <use
         xlink:href="#DejaVuSans-6e"
         x="583.88281"
         id="use75" />
      <use
         xlink:href="#DejaVuSans-74"
         x="647.26172"
         id="use76" />
    </g>
  </g>
  <defs
     id="defs76">
    <clipPath
       id="p3f2b13db65">
      <rect
         x="63"
         y="34.560001"
         width="390.60001"
         height="221.75999"
         id="rect76" />
    </clipPath>
  </defs>
</svg>
